# xmcd
#
# Track frame offsets:
#	150
#	12434
#	24185
#	36744
#	50283
#	67241
#	81147
#	93076
#	106871
#	122663
#
# Disc length: 1805
#
# Revision: 3
# Processed by: cddbd v1.5.1PL0 Copyright (c) Steve Scherf et al.
# Submitted via: EZCDDA 4.3.2
# Normalized: r2:TDELIM( - )
#
DISCID=7a070b0a
DTITLE=Various Artist - Country's Greatest (Volume 2)
DYEAR=1900
DGENRE=
TTITLE0=Merle Haggard - Workin' Man's Blues (1969)
TTITLE1=Patsy Cline - Walkin' After Midnight (1957)
TTITLE2=Freddy Fender - Wasted Days And Wasted Nights (1975)
TTITLE3=Johnny Paycheck - The Only Hell Mama Raised (1977)
TTITLE4=Ray Price - For The Good Times (1970)
TTITLE5=T. Graham Brown - Hell Or High Water (1986)
TTITLE6=Donna Fargo - Funny Face (1972)
TTITLE7=Lee Greenwood - I.O.U. (1983)
TTITLE8=Johnny Lee - Lookin' For Love (1980)
TTITLE9=Charlie Rich - The Most Beautiful Girl (1973)
EXTD=
EXTT0=
EXTT1=
EXTT2=
EXTT3=
EXTT4=
EXTT5=
EXTT6=
EXTT7=
EXTT8=
EXTT9=
PLAYORDER=
